<svg width="266" height="82" viewBox="0 0 266 82" fill="none" xmlns="http://www.w3.org/2000/svg">
<path d="M112.71 53.7349C110.964 53.7349 109.392 53.4356 107.996 52.8369C106.599 52.2133 105.501 51.3403 104.703 50.2178C103.905 49.0953 103.506 47.7858 103.506 46.2891H108.07C108.17 47.4116 108.607 48.3345 109.38 49.0579C110.178 49.7813 111.288 50.143 112.71 50.143C114.182 50.143 115.329 49.7938 116.152 49.0953C116.975 48.372 117.387 47.449 117.387 46.3265C117.387 45.4535 117.125 44.7426 116.601 44.1938C116.102 43.645 115.466 43.221 114.693 42.9217C113.945 42.6223 112.897 42.2981 111.55 41.9488C109.854 41.4999 108.469 41.0509 107.397 40.6019C106.349 40.1279 105.451 39.4046 104.703 38.4317C103.955 37.4589 103.58 36.1618 103.58 34.5404C103.58 33.0438 103.955 31.7342 104.703 30.6118C105.451 29.4893 106.499 28.6287 107.846 28.03C109.193 27.4314 110.752 27.1321 112.523 27.1321C115.042 27.1321 117.1 27.7681 118.697 29.0403C120.318 30.2875 121.216 32.0086 121.391 34.2037H116.676C116.601 33.2558 116.152 32.4451 115.329 31.7717C114.506 31.0982 113.421 30.7614 112.074 30.7614C110.852 30.7614 109.854 31.0732 109.081 31.6968C108.307 32.3204 107.921 33.2184 107.921 34.3908C107.921 35.189 108.158 35.85 108.632 36.3738C109.13 36.8727 109.754 37.2718 110.502 37.5712C111.251 37.8705 112.273 38.1948 113.571 38.544C115.292 39.0179 116.689 39.4919 117.761 39.9658C118.859 40.4397 119.782 41.1756 120.53 42.1733C121.303 43.1462 121.69 44.4557 121.69 46.102C121.69 47.4241 121.328 48.6713 120.605 49.8437C119.906 51.016 118.871 51.9639 117.499 52.6873C116.152 53.3857 114.556 53.7349 112.71 53.7349ZM131.699 36.3364V47.7484C131.699 48.5216 131.874 49.0829 132.223 49.4321C132.597 49.7564 133.221 49.9185 134.094 49.9185H136.713V53.473H133.346C131.425 53.473 129.953 53.024 128.93 52.126C127.908 51.2281 127.396 49.7688 127.396 47.7484V36.3364H124.964V32.8567H127.396V27.7307H131.699V32.8567H136.713V36.3364H131.699ZM149.587 53.8098C147.641 53.8098 145.883 53.3732 144.311 52.5002C142.74 51.6022 141.505 50.355 140.607 48.7586C139.709 47.1372 139.26 45.2664 139.26 43.1462C139.26 41.0509 139.721 39.1925 140.644 37.5712C141.567 35.9498 142.827 34.7026 144.423 33.8295C146.02 32.9565 147.803 32.52 149.774 32.52C151.744 32.52 153.528 32.9565 155.124 33.8295C156.721 34.7026 157.98 35.9498 158.903 37.5712C159.826 39.1925 160.288 41.0509 160.288 43.1462C160.288 45.2415 159.814 47.0998 158.866 48.7212C157.918 50.3425 156.621 51.6022 154.975 52.5002C153.353 53.3732 151.557 53.8098 149.587 53.8098ZM149.587 50.1056C150.684 50.1056 151.707 49.8437 152.655 49.3198C153.628 48.796 154.413 48.0103 155.012 46.9626C155.611 45.915 155.91 44.6428 155.91 43.1462C155.91 41.6495 155.623 40.3898 155.05 39.3671C154.476 38.3195 153.715 37.5337 152.767 37.0099C151.819 36.4861 150.797 36.2242 149.699 36.2242C148.601 36.2242 147.579 36.4861 146.631 37.0099C145.708 37.5337 144.972 38.3195 144.423 39.3671C143.875 40.3898 143.6 41.6495 143.6 43.1462C143.6 45.3662 144.161 47.0873 145.284 48.3096C146.431 49.5069 147.866 50.1056 149.587 50.1056ZM168.77 35.85C169.393 34.8024 170.217 33.9917 171.239 33.418C172.287 32.8193 173.522 32.52 174.944 32.52V36.9351H173.858C172.187 36.9351 170.915 37.3591 170.042 38.2072C169.194 39.0553 168.77 40.527 168.77 42.6223V53.473H164.504V32.8567H168.77V35.85ZM197.759 42.6598C197.759 43.433 197.71 44.1315 197.61 44.7551H181.858C181.982 46.4014 182.593 47.7234 183.691 48.7212C184.789 49.7189 186.136 50.2178 187.732 50.2178C190.027 50.2178 191.648 49.2575 192.596 47.3368H197.198C196.575 49.2325 195.44 50.7915 193.793 52.0138C192.172 53.2111 190.152 53.8098 187.732 53.8098C185.761 53.8098 183.99 53.3732 182.419 52.5002C180.872 51.6022 179.65 50.355 178.752 48.7586C177.879 47.1372 177.443 45.2664 177.443 43.1462C177.443 41.0259 177.867 39.1676 178.715 37.5712C179.588 35.9498 180.798 34.7026 182.344 33.8295C183.916 32.9565 185.711 32.52 187.732 32.52C189.678 32.52 191.411 32.944 192.933 33.7921C194.454 34.6402 195.639 35.8375 196.487 37.3841C197.335 38.9057 197.759 40.6642 197.759 42.6598ZM193.307 41.3128C193.282 39.7413 192.721 38.4816 191.623 37.5337C190.526 36.5859 189.166 36.1119 187.545 36.1119C186.073 36.1119 184.814 36.5859 183.766 37.5337C182.718 38.4567 182.095 39.7164 181.895 41.3128H193.307ZM215.876 40.1155C217.273 40.3649 218.458 41.1007 219.43 42.323C220.403 43.5453 220.89 44.9297 220.89 46.4762C220.89 47.7982 220.54 48.9956 219.842 50.0682C219.169 51.1158 218.183 51.9514 216.886 52.575C215.589 53.1737 214.08 53.473 212.359 53.473H201.957V27.4688H211.872C213.643 27.4688 215.165 27.7681 216.437 28.3668C217.709 28.9654 218.67 29.7761 219.318 30.7988C219.967 31.7966 220.291 32.9191 220.291 34.1663C220.291 35.6629 219.892 36.9101 219.094 37.9079C218.296 38.9057 217.223 39.6415 215.876 40.1155ZM206.223 38.3943H211.498C212.895 38.3943 213.98 38.0825 214.753 37.4589C215.552 36.8104 215.951 35.8874 215.951 34.6901C215.951 33.5177 215.552 32.6073 214.753 31.9587C213.98 31.2852 212.895 30.9485 211.498 30.9485H206.223V38.3943ZM211.985 49.9933C213.431 49.9933 214.566 49.6441 215.39 48.9457C216.213 48.2472 216.624 47.2744 216.624 46.0272C216.624 44.7551 216.188 43.7448 215.315 42.9965C214.442 42.2482 213.282 41.874 211.835 41.874H206.223V49.9933H211.985ZM234.467 53.8098C232.522 53.8098 230.763 53.3732 229.192 52.5002C227.62 51.6022 226.385 50.355 225.487 48.7586C224.59 47.1372 224.141 45.2664 224.141 43.1462C224.141 41.0509 224.602 39.1925 225.525 37.5712C226.448 35.9498 227.708 34.7026 229.304 33.8295C230.9 32.9565 232.684 32.52 234.654 32.52C236.625 32.52 238.409 32.9565 240.005 33.8295C241.601 34.7026 242.861 35.9498 243.784 37.5712C244.707 39.1925 245.168 41.0509 245.168 43.1462C245.168 45.2415 244.694 47.0998 243.747 48.7212C242.799 50.3425 241.502 51.6022 239.855 52.5002C238.234 53.3732 236.438 53.8098 234.467 53.8098ZM234.467 50.1056C235.565 50.1056 236.588 49.8437 237.535 49.3198C238.508 48.796 239.294 48.0103 239.893 46.9626C240.491 45.915 240.791 44.6428 240.791 43.1462C240.791 41.6495 240.504 40.3898 239.93 39.3671C239.356 38.3195 238.596 37.5337 237.648 37.0099C236.7 36.4861 235.677 36.2242 234.58 36.2242C233.482 36.2242 232.459 36.4861 231.511 37.0099C230.589 37.5337 229.853 38.3195 229.304 39.3671C228.755 40.3898 228.481 41.6495 228.481 43.1462C228.481 45.3662 229.042 47.0873 230.165 48.3096C231.312 49.5069 232.746 50.1056 234.467 50.1056ZM258.215 43.0339L264.875 53.473H260.049L255.596 46.4762L251.405 53.473H246.953L253.613 43.3332L246.953 32.8567H251.78L256.232 39.8535L260.423 32.8567H264.875L258.215 43.0339Z" fill="white"/>
<rect opacity="0.2" width="74.8323" height="74.8323" rx="37.4161" fill="white"/>
<rect x="32.7393" y="31.1801" width="49.8882" height="49.8882" rx="24.9441" fill="white"/>
</svg>
